{"title":"[HINDI] Dabdaba 2003 XViD MP3 [TMB]","uid":8102520,"size":856722296,"categoryP":"video","categoryS":"movies","magnet":"?xt=urn:btih:9d9bd25afde6466d5dd2f0c0e5cb40937ed78f71&amp;dn=%5BHINDI%5D+Dabdaba+2003+XViD+MP3+%5BTMB%5D&amp;tr=udp%3A%2F%2Ftracker.openbittorrent.com%3A80&amp;tr=udp%3A%2F%2Fopen.demonii.com%3A1337&amp;tr=udp%3A%2F%2Ftracker.coppersurfer.tk%3A6969&amp;tr=udp%3A%2F%2Fexodus.desync.com%3A6969","seeders":1,"leechers":0,"uploader":"SJonam","files":1,"time":1360006577,"description":" &lt;a href=&quot;http://i26.photobucket.com/albums/c119/manojb/good.gif&quot; rel=&quot;nofollow&quot; target=&quot;_NEW&quot;&gt;http://i26.photobucket.com/albums/c119/manojb/good.gif&lt;/a&gt; &lt;a href=&quot;\nhttp://i26.photobucket.com/albums/c119/manojb/vlcsnap-2013-02-04-23h11m24s248.png&quot; rel=&quot;nofollow&quot; target=&quot;_NEW&quot;&gt;\nhttp://i26.photobucket.com/albums/c119/manojb/vlcsnap-2013-02-04-23h11m24s248.png&lt;/a&gt; &lt;a href=&quot;\nhttp://i26.photobucket.com/albums/c119/manojb/vlcsnap-2013-02-04-23h11m37s128.png&quot; rel=&quot;nofollow&quot; target=&quot;_NEW&quot;&gt;\nhttp://i26.photobucket.com/albums/c119/manojb/vlcsnap-2013-02-04-23h11m37s128.png&lt;/a&gt; &lt;a href=&quot;\nhttp://i26.photobucket.com/albums/c119/manojb/vlcsnap-2013-02-04-23h12m07s168.png&quot; rel=&quot;nofollow&quot; target=&quot;_NEW&quot;&gt;\nhttp://i26.photobucket.com/albums/c119/manojb/vlcsnap-2013-02-04-23h12m07s168.png&lt;/a&gt; &lt;a href=&quot;\nhttp://i26.photobucket.com/albums/c119/manojb/vlcsnap-2013-02-04-23h12m27s111.png&quot; rel=&quot;nofollow&quot; target=&quot;_NEW&quot;&gt;\nhttp://i26.photobucket.com/albums/c119/manojb/vlcsnap-2013-02-04-23h12m27s111.png&lt;/a&gt;\n\nInfo - \nCast - \nPinky Chinoy\nPooja Dadwal\nVeena Kapoor\nShoib Khan\n\nDirector - \nShyam Sonie\n\nProducer - \nSurekha Dhanu\n\nWriter - \nShyam Sonie\n\nPlot - \nRam lives with his mom, businessman father, Girdharilal, and an unmarried sister. He is in love with Pooja, the daughter of Jaspal Singh, who works as a Supervisor in Girdharilal's firm. When Girdharilal comes to know that his son would like to get married to Jaspal's daughter, he fires Jaspal, and makes him an equal partner with his firm. This does not auger well with K.K. the existing partner and he kills both Girdharilal and Jaspal; frames Ram for the killing with the help of a corrupt police inspector. However, Ram's friend, Salim Khan, the son of Home Minister, Nawab Khan, pulls some strings to set Ram free. Ram is obsesses with vengeance and will not rest until K.K. is killed. A terrified K.K. seeks protection with underworld Don, Nagra, who eventually ends up killing K.K. in order to escape from the wrath of Ram, who is now knows as Ramabhai. That done, Ram decides to marry Pooja and they settle down in a far-off place. Soon Pooja gets pregnant, much to their joy. But then the past comes to re-visit them in the shape and form of CBI Inspector Rajpal Singh, Jaspal brother, and Pooja's paternal uncle, who has been assigned the task of apprehending Nagra. It is here that Ram finds out that K.K. is still alive, and his death was a scam. Enraged, Ram anger knows no bounds and he must again embark on a killing spree - this time to kill both Nagra and K.K. - knowing fully well that Rajpal Singh is hot on his trail as well. \n\nMedia Info - \nGeneral\nComplete name                  : Dabdaba XViD MP3.avi\nFormat                         : AVI\nFormat/Info                    : Audio Video Interleave\nFile size                      : 817 MiB\nDuration                       : 2h 9mn\nOverall bit rate               : 881 Kbps\n\nVideo\nID                             : 0\nFormat                         : MPEG-4 Visual\nFormat profile                 : Advanced Simple@L1\nFormat settings, BVOP          : 2\nFormat settings, QPel          : No\nFormat settings, GMC           : No warppoints\nFormat settings, Matrix        : Default (H.263)\nCodec ID                       : DIVX\nCodec ID/Info                  : Project Mayo\nCodec ID/Hint                  : DivX 4\nDuration                       : 2h 9mn\nBit rate                       : 740 Kbps\nWidth                          : 456 pixels\nHeight                         : 248 pixels\nDisplay aspect ratio           : 1.85:1\nFrame rate                     : 25.000 fps\nColor space                    : YUV\nChroma subsampling             : 4:2:0\nBit depth                      : 8 bits\nScan type                      : Progressive\nCompression mode               : Lossy\nBits/(Pixel*Frame)             : 0.262\nStream size                    : 687 MiB (84%)\nWriting library                : Lavc54.59.100\n\nAudio\nID                             : 1\nFormat                         : MPEG Audio\nFormat version                 : Version 1\nFormat profile                 : Layer 3\nCodec ID                       : 55\nCodec ID/Hint                  : MP3\nDuration                       : 2h 9mn\nSource duration                : 2h 9mn\nBit rate mode                  : Constant\nBit rate                       : 128 Kbps\nChannel(s)                     : 2 channels\nSampling rate                  : 44.1 KHz\nCompression mode               : Lossy\nStream size                    : 119 MiB (15%)\nAlignment                      : Aligned on interleaves\nInterleave, duration           : 26 ms (0.65 video frame)\n\nRipper : Manojvb\n\nExtreme 24x7 Seeding\n\n\nEnjoy TMB Release!","torrent":{"xt":"urn:btih:9d9bd25afde6466d5dd2f0c0e5cb40937ed78f71","amp;dn":"%5BHINDI%5D+Dabdaba+2003+XViD+MP3+%5BTMB%5D","amp;tr":["udp%3A%2F%2Ftracker.openbittorrent.com%3A80","udp%3A%2F%2Fopen.demonii.com%3A1337","udp%3A%2F%2Ftracker.coppersurfer.tk%3A6969","udp%3A%2F%2Fexodus.desync.com%3A6969"],"infoHash":"9d9bd25afde6466d5dd2f0c0e5cb40937ed78f71","infoHashBuffer":{"type":"Buffer","data":[157,155,210,90,253,230,70,109,93,210,240,192,229,203,64,147,126,215,143,113]},"announce":[],"urlList":[]}}